<svg xmlns="http://www.w3.org/2000/svg" width="163" height="32" viewBox="0 0 163 32"><g><g><g><g><path fill="#bdd1df" d="M16 0c8.836 0 16 7.163 16 16 0 8.836-7.164 16-16 16-8.837 0-16-7.164-16-16C0 7.162 7.163 0 16 0z"/></g><g><path fill="#fff" d="M18.979 8.94h-1.651s-3.313-.247-3.313 3.245v1.806h-2l.006 2.007h1.993l-.03 8.014h3.03v-7.983l1.738-.031.624-2.007h-2.394v-2.065s-.025-.916 1.049-.916h.938z"/></g></g><g><g><path fill="#bdd1df" d="M103 0c8.837 0 16 7.163 16 16 0 8.836-7.163 16-16 16s-16-7.164-16-16c0-8.837 7.163-16 16-16z"/></g><g><path fill="#fff" d="M99.464 8.918c0 .974-.7 1.69-1.896 1.69-1.126 0-1.88-.716-1.88-1.69 0-.997.75-1.704 1.9-1.704 1.149 0 1.853.707 1.876 1.704zM95.996 23.01V11.987h3.01V23.01zm5.02-11.023h2.685l.322 1.123c.444-.71 1.406-1.504 3.227-1.504 2.22 0 3.756 1.295 3.756 4.49v6.883h-3v-6.402c0-1.397-.965-2.351-2.187-2.351-.933 0-1.471.643-1.716 1.264-.089.222-.111.533-.111.844v6.645h-2.977z"/></g></g><g><g><path fill="#bdd1df" d="M60 0c8.836 0 16 7.163 16 16 0 8.836-7.164 16-16 16-8.837 0-16-7.164-16-16 0-8.837 7.163-16 16-16z"/></g><g><path fill="#fff" d="M68.984 11.656a6.87 6.87 0 0 1-2 .556 3.538 3.538 0 0 0 1.532-1.956c-.673.406-1.418.7-2.211.858a3.452 3.452 0 0 0-2.541-1.116c-1.923 0-3.482 1.583-3.482 3.535 0 .277.031.547.09.805-2.893-.147-5.459-1.554-7.175-3.693-.3.522-.472 1.13-.472 1.777 0 1.226.615 2.308 1.549 2.942a3.425 3.425 0 0 1-1.577-.441v.044c0 1.713 1.2 3.141 2.792 3.466a3.42 3.42 0 0 1-1.572.06c.443 1.405 1.73 2.428 3.253 2.456a6.917 6.917 0 0 1-5.154 1.463 9.737 9.737 0 0 0 5.336 1.589c6.403 0 9.905-5.387 9.905-10.058 0-.153-.003-.306-.01-.458a7.13 7.13 0 0 0 1.737-1.83z"/></g></g><g><g><path fill="#bdd1df" d="M147 0c8.837 0 16 7.163 16 16 0 8.836-7.163 16-16 16s-16-7.164-16-16c0-8.837 7.163-16 16-16z"/></g><g><path fill="#fff" d="M139.609 12.178c.487.27 6.238 4.01 6.489 4.15.251.138.577.206.905.206.328 0 .654-.068.905-.207.251-.138 6.002-3.879 6.49-4.149.487-.27.949-1.118.053-1.118h-14.896c-.895 0-.434.848.054 1.118zm14.995 2.06c-.554.298-6.357 3.967-6.696 4.15-.34.182-.577.206-.905.206-.328 0-.566-.024-.905-.207-.34-.182-6.142-3.85-6.696-4.15-.39-.209-.386.037-.386.227v7.555c0 .432.557.988.99.988H154c.433 0 .99-.556.99-.988v-7.555c0-.19.004-.436-.386-.226z"/></g></g></g></g></svg>